# xmcd CD database file
#
# Track frame offsets:
#	150
#	15825
#	39750
#	55125
#	72450
#	90375
#	103725
#	126075
#	145500
#	170475
#	191250
#	208875
#	233025
#
# Disc length: 3478 seconds
#
# Revision: 0
# Processed by: cddbd v1.5.2PL0 Copyright (c) Steve Scherf et al.
# Submitted via: CDex 1.51
#
DISCID=a20d940d
DTITLE=Wojtek Mazolewski Quintet - Polka
DYEAR=2014
DGENRE=Jazz
TTITLE0=Roma I
TTITLE1=Grochów
TTITLE2=Heart-shaped Box
TTITLE3=Punk-T Gdansk
TTITLE4=Polka
TTITLE5=Bombtrack
TTITLE6=Paris
TTITLE7=Berlin
TTITLE8=Sunday
TTITLE9=Bankok
TTITLE10=Kraków
TTITLE11=Get Free
TTITLE12=Roma II
EXTD=YEAR: 2014
EXTT0=
EXTT1=
EXTT2=
EXTT3=
EXTT4=
EXTT5=
EXTT6=
EXTT7=
EXTT8=
EXTT9=
EXTT10=
EXTT11=
EXTT12=
PLAYORDER=
